# xmcd
#
# Track frame offsets: 
#        150
#        6547
#        21262
#        43932
#        63630
#        81457
#        98615
#        115435
#        135920
#        151962
#        170747
#
# Disc length: 2720 seconds
#
# Revision: 0
# Processed by: cddbd v1.5PL3 Copyright (c) Steve Scherf et al.
# Submitted via: ExactAudioCopy v0.95a3
#
DISCID=950a9e0b
DTITLE=Hi-5 - MUSIC RE-START
DYEAR=2002
DGENRE=Rock
TTITLE0=RE-START MUSIC
TTITLE1=CAN'T BREATHE
TTITLE2=Wonder in Wonder Time
TTITLE3=SIBERIA
TTITLE4=DRY
TTITLE5=sci-filike
TTITLE6=The Song Remains
TTITLE7=someday
TTITLE8=WEB RIDE
TTITLE9=FUTURE-ELECTRO-PARADE
TTITLE10=MUSIC RE-START
EXTD=
EXTT0=
EXTT1=
EXTT2=
EXTT3=
EXTT4=
EXTT5=
EXTT6=
EXTT7=
EXTT8=
EXTT9=
EXTT10=
PLAYORDER=
